
<svg width="64" height="64" viewBox="0 0 64 64" fill="none" xmlns="http://www.w3.org/2000/svg">
<title>CustomCreations Co. Logo</title>
<desc>A stylized letter C combined with a spark, representing creativity and customization for CustomCreations Co.</desc>
<defs>
  <linearGradient id="grad1" x1="0%" y1="0%" x2="100%" y2="100%">
    <stop offset="0%" style="stop-color:#FF6B6B;stop-opacity:1" />
    <stop offset="100%" style="stop-color:#FFD166;stop-opacity:1" />
  </linearGradient>
  <linearGradient id="grad2" x1="0%" y1="0%" x2="100%" y2="100%">
    <stop offset="0%" style="stop-color:#4D96FF;stop-opacity:1" />
    <stop offset="100%" style="stop-color:#6BCB77;stop-opacity:1" />
  </linearGradient>
</defs>
<path d="M45.6659 13.3416C42.5039 10.9995 38.7156 9.45898 34.5918 9.05469C29.4482 8.55078 24.3047 10.0913 20.0195 13.3416C18.0371 14.8821 16.3701 16.7381 15.0186 18.8055C12.0908 23.2557 11.1055 28.6112 12.209 33.7547C13.3125 38.8983 16.3701 43.3485 20.6465 46.5987C24.9229 49.849 30.0664 51.3895 35.2099 50.8856C38.7156 50.4813 42.2215 49.2217 45.3496 47.1543" stroke="url(#grad1)" stroke-width="5" stroke-linecap="round" stroke-linejoin="round"/>
<path d="M36 32L32 28M32 28L28 32M32 28V18" stroke="url(#grad2)" stroke-width="4" stroke-linecap="round" stroke-linejoin="round"/>
<path d="M32 46V38M32 38L28 34M32 38L36 34" stroke="url(#grad2)" stroke-width="4" stroke-linecap="round" stroke-linejoin="round"/>
<path d="M20 32H28M28 32L24 28M28 32L24 36" stroke="url(#grad2)" stroke-width="4" stroke-linecap="round" stroke-linejoin="round"/>
<path d="M44 32H36M36 32L40 28M36 32L40 36" stroke="url(#grad2)" stroke-width="4" stroke-linecap="round" stroke-linejoin="round"/>
<circle cx="32" cy="32" r="3" fill="url(#grad1)"/>
</svg>
